<mxfile host="app.diagrams.net" modified="2024-07-16T09:32:52.109Z" agent="Mozilla/5.0 (X11; Linux x86_64) AppleWebKit/537.36 (KHTML, like Gecko) Chrome/125.0.0.0 Safari/537.36" etag="hZIrroPOz87xKd-18KD5" version="24.6.5" type="github">
  <diagram name="Page-1" id="5oOMWPw8lWwapSi2x2oq">
    <mxGraphModel dx="1613" dy="609" grid="0" gridSize="10" guides="0" tooltips="1" connect="1" arrows="1" fold="1" page="0" pageScale="1" pageWidth="850" pageHeight="1100" math="0" shadow="0">
      <root>
        <mxCell id="0" />
        <mxCell id="1" parent="0" />
        <mxCell id="VJS4k0ezBitYphk66Be5-2" value="&lt;p style=&quot;margin:0px;margin-top:4px;text-align:center;&quot;&gt;&lt;b&gt;AttentionBackend&lt;/b&gt;&lt;/p&gt;&lt;hr size=&quot;1&quot; style=&quot;border-style:solid;&quot;&gt;&lt;p style=&quot;margin:0px;margin-left:4px;&quot;&gt;&lt;/p&gt;&lt;p style=&quot;margin:0px;margin-left:4px;&quot;&gt;+ get_impl_cls() -&amp;gt; Type[&quot;AttentionImpl&quot;]&lt;/p&gt;&lt;p style=&quot;margin:0px;margin-left:4px;&quot;&gt;+ make_metadata() -&amp;gt; &quot;AttentionMetadataPerStage&quot;&lt;/p&gt;&lt;p style=&quot;margin:0px;margin-left:4px;&quot;&gt;...&lt;/p&gt;" style="verticalAlign=top;align=left;overflow=fill;html=1;whiteSpace=wrap;" vertex="1" parent="1">
          <mxGeometry x="90" y="150" width="290" height="80" as="geometry" />
        </mxCell>
        <mxCell id="VJS4k0ezBitYphk66Be5-4" style="edgeStyle=orthogonalEdgeStyle;rounded=0;orthogonalLoop=1;jettySize=auto;html=1;exitX=0.5;exitY=0;exitDx=0;exitDy=0;entryX=0.25;entryY=1;entryDx=0;entryDy=0;" edge="1" parent="1" source="VJS4k0ezBitYphk66Be5-3" target="VJS4k0ezBitYphk66Be5-2">
          <mxGeometry relative="1" as="geometry" />
        </mxCell>
        <mxCell id="VJS4k0ezBitYphk66Be5-12" style="edgeStyle=orthogonalEdgeStyle;rounded=0;orthogonalLoop=1;jettySize=auto;html=1;exitX=0.75;exitY=1;exitDx=0;exitDy=0;entryX=0.5;entryY=1;entryDx=0;entryDy=0;dashed=1;" edge="1" parent="1" source="VJS4k0ezBitYphk66Be5-3" target="VJS4k0ezBitYphk66Be5-10">
          <mxGeometry relative="1" as="geometry" />
        </mxCell>
        <mxCell id="VJS4k0ezBitYphk66Be5-21" style="edgeStyle=orthogonalEdgeStyle;rounded=0;orthogonalLoop=1;jettySize=auto;html=1;exitX=0.25;exitY=1;exitDx=0;exitDy=0;entryX=0.5;entryY=1;entryDx=0;entryDy=0;dashed=1;" edge="1" parent="1" source="VJS4k0ezBitYphk66Be5-3" target="VJS4k0ezBitYphk66Be5-19">
          <mxGeometry relative="1" as="geometry" />
        </mxCell>
        <mxCell id="VJS4k0ezBitYphk66Be5-3" value="&lt;p style=&quot;margin:0px;margin-top:4px;text-align:center;&quot;&gt;&lt;b&gt;FlashAttentionBackend&lt;/b&gt;&lt;/p&gt;&lt;hr size=&quot;1&quot; style=&quot;border-style:solid;&quot;&gt;&lt;p style=&quot;margin:0px;margin-left:4px;&quot;&gt;+ get_impl_cls() -&amp;gt; Type[&quot;FlashAttentionImpl&quot;]&lt;/p&gt;&lt;p style=&quot;margin:0px;margin-left:4px;&quot;&gt;+ make_metadata() -&amp;gt; &quot;FlashAttentionMetadata&quot;&lt;/p&gt;&lt;p style=&quot;margin:0px;margin-left:4px;&quot;&gt;...&lt;/p&gt;" style="verticalAlign=top;align=left;overflow=fill;html=1;whiteSpace=wrap;" vertex="1" parent="1">
          <mxGeometry x="-50" y="290" width="270" height="80" as="geometry" />
        </mxCell>
        <mxCell id="VJS4k0ezBitYphk66Be5-9" value="&lt;p style=&quot;margin:0px;margin-top:4px;text-align:center;&quot;&gt;&lt;b&gt;&lt;span style=&quot;text-align: left;&quot;&gt;AttentionMetadata&lt;/span&gt;&lt;span style=&quot;background-color: initial; text-align: left;&quot;&gt;PerStage&lt;/span&gt;&lt;/b&gt;&lt;br&gt;&lt;/p&gt;&lt;hr size=&quot;1&quot; style=&quot;border-style:solid;&quot;&gt;&lt;p style=&quot;margin:0px;margin-left:4px;&quot;&gt;...&lt;/p&gt;" style="verticalAlign=top;align=left;overflow=fill;html=1;whiteSpace=wrap;" vertex="1" parent="1">
          <mxGeometry x="545" y="150" width="170" height="50" as="geometry" />
        </mxCell>
        <mxCell id="VJS4k0ezBitYphk66Be5-11" style="edgeStyle=orthogonalEdgeStyle;rounded=0;orthogonalLoop=1;jettySize=auto;html=1;exitX=0.5;exitY=0;exitDx=0;exitDy=0;entryX=0.25;entryY=1;entryDx=0;entryDy=0;" edge="1" parent="1" source="VJS4k0ezBitYphk66Be5-10" target="VJS4k0ezBitYphk66Be5-9">
          <mxGeometry relative="1" as="geometry">
            <mxPoint x="635" y="210" as="sourcePoint" />
          </mxGeometry>
        </mxCell>
        <mxCell id="VJS4k0ezBitYphk66Be5-10" value="&lt;p style=&quot;margin:0px;margin-top:4px;text-align:center;&quot;&gt;&lt;b&gt;&lt;span style=&quot;text-align: left;&quot;&gt;FlashAttentionMetadata&lt;/span&gt;&lt;br&gt;&lt;/b&gt;&lt;/p&gt;&lt;hr size=&quot;1&quot; style=&quot;border-style:solid;&quot;&gt;&lt;p style=&quot;margin:0px;margin-left:4px;&quot;&gt;...&lt;/p&gt;" style="verticalAlign=top;align=left;overflow=fill;html=1;whiteSpace=wrap;" vertex="1" parent="1">
          <mxGeometry x="555" y="280" width="160" height="50" as="geometry" />
        </mxCell>
        <mxCell id="VJS4k0ezBitYphk66Be5-18" value="&lt;p style=&quot;margin:0px;margin-top:4px;text-align:center;&quot;&gt;&lt;b&gt;AttentionImpl&lt;/b&gt;&lt;/p&gt;&lt;hr size=&quot;1&quot; style=&quot;border-style:solid;&quot;&gt;&lt;p style=&quot;margin:0px;margin-left:4px;&quot;&gt;&lt;/p&gt;&lt;p style=&quot;margin:0px;margin-left:4px;&quot;&gt;+ __init__() -&amp;gt; None&lt;/p&gt;&lt;p style=&quot;margin:0px;margin-left:4px;&quot;&gt;+ forward() -&amp;gt; torch.Tensor&lt;/p&gt;" style="verticalAlign=top;align=left;overflow=fill;html=1;whiteSpace=wrap;" vertex="1" parent="1">
          <mxGeometry x="745" y="170" width="150" height="70" as="geometry" />
        </mxCell>
        <mxCell id="VJS4k0ezBitYphk66Be5-20" style="edgeStyle=orthogonalEdgeStyle;rounded=0;orthogonalLoop=1;jettySize=auto;html=1;exitX=0.5;exitY=0;exitDx=0;exitDy=0;entryX=0.25;entryY=1;entryDx=0;entryDy=0;" edge="1" parent="1" source="VJS4k0ezBitYphk66Be5-19" target="VJS4k0ezBitYphk66Be5-18">
          <mxGeometry relative="1" as="geometry" />
        </mxCell>
        <mxCell id="VJS4k0ezBitYphk66Be5-19" value="&lt;p style=&quot;margin:0px;margin-top:4px;text-align:center;&quot;&gt;&lt;b&gt;FlashAttentionImpl&lt;/b&gt;&lt;/p&gt;&lt;hr size=&quot;1&quot; style=&quot;border-style:solid;&quot;&gt;&lt;p style=&quot;margin:0px;margin-left:4px;&quot;&gt;&lt;/p&gt;&lt;p style=&quot;margin:0px;margin-left:4px;&quot;&gt;+ __init__() -&amp;gt; None&lt;/p&gt;&lt;p style=&quot;margin:0px;margin-left:4px;&quot;&gt;+ forward() -&amp;gt; torch.Tensor&lt;/p&gt;" style="verticalAlign=top;align=left;overflow=fill;html=1;whiteSpace=wrap;" vertex="1" parent="1">
          <mxGeometry x="670" y="370" width="150" height="70" as="geometry" />
        </mxCell>
        <mxCell id="VJS4k0ezBitYphk66Be5-23" style="edgeStyle=orthogonalEdgeStyle;rounded=0;orthogonalLoop=1;jettySize=auto;html=1;exitX=0.75;exitY=1;exitDx=0;exitDy=0;entryX=0.5;entryY=1;entryDx=0;entryDy=0;dashed=1;" edge="1" parent="1" source="VJS4k0ezBitYphk66Be5-25" target="VJS4k0ezBitYphk66Be5-28">
          <mxGeometry relative="1" as="geometry" />
        </mxCell>
        <mxCell id="VJS4k0ezBitYphk66Be5-24" style="edgeStyle=orthogonalEdgeStyle;rounded=0;orthogonalLoop=1;jettySize=auto;html=1;exitX=0.25;exitY=1;exitDx=0;exitDy=0;entryX=0.5;entryY=1;entryDx=0;entryDy=0;dashed=1;" edge="1" parent="1" source="VJS4k0ezBitYphk66Be5-25" target="VJS4k0ezBitYphk66Be5-31">
          <mxGeometry relative="1" as="geometry" />
        </mxCell>
        <mxCell id="VJS4k0ezBitYphk66Be5-32" style="edgeStyle=orthogonalEdgeStyle;rounded=0;orthogonalLoop=1;jettySize=auto;html=1;exitX=0.5;exitY=0;exitDx=0;exitDy=0;entryX=0.75;entryY=1;entryDx=0;entryDy=0;" edge="1" parent="1" source="VJS4k0ezBitYphk66Be5-25" target="VJS4k0ezBitYphk66Be5-2">
          <mxGeometry relative="1" as="geometry" />
        </mxCell>
        <mxCell id="VJS4k0ezBitYphk66Be5-25" value="&lt;p style=&quot;margin:0px;margin-top:4px;text-align:center;&quot;&gt;&lt;b&gt;TorchSDPABackend&lt;/b&gt;&lt;/p&gt;&lt;hr size=&quot;1&quot; style=&quot;border-style:solid;&quot;&gt;&lt;p style=&quot;margin:0px;margin-left:4px;&quot;&gt;+ get_impl_cls() -&amp;gt; Type[&quot;TorchSDPABackendImpl&quot;]&lt;/p&gt;&lt;p style=&quot;margin:0px;margin-left:4px;&quot;&gt;+ make_metadata() -&amp;gt; &quot;TorchSDPAMetadata&quot;&lt;/p&gt;&lt;p style=&quot;margin:0px;margin-left:4px;&quot;&gt;...&lt;/p&gt;" style="verticalAlign=top;align=left;overflow=fill;html=1;whiteSpace=wrap;" vertex="1" parent="1">
          <mxGeometry x="230" y="290" width="290" height="80" as="geometry" />
        </mxCell>
        <mxCell id="VJS4k0ezBitYphk66Be5-26" value="&lt;p style=&quot;margin:0px;margin-top:4px;text-align:center;&quot;&gt;&lt;b&gt;&lt;span style=&quot;text-align: left;&quot;&gt;AttentionMetadata&lt;/span&gt;&lt;/b&gt;&lt;br&gt;&lt;/p&gt;&lt;hr size=&quot;1&quot; style=&quot;border-style:solid;&quot;&gt;&lt;p style=&quot;margin:0px;margin-left:4px;&quot;&gt;...&lt;/p&gt;" style="verticalAlign=top;align=left;overflow=fill;html=1;whiteSpace=wrap;" vertex="1" parent="1">
          <mxGeometry x="555" y="500" width="170" height="50" as="geometry" />
        </mxCell>
        <mxCell id="VJS4k0ezBitYphk66Be5-27" style="edgeStyle=orthogonalEdgeStyle;rounded=0;orthogonalLoop=1;jettySize=auto;html=1;exitX=0.5;exitY=0;exitDx=0;exitDy=0;entryX=0.5;entryY=1;entryDx=0;entryDy=0;" edge="1" parent="1" source="VJS4k0ezBitYphk66Be5-28" target="VJS4k0ezBitYphk66Be5-26">
          <mxGeometry relative="1" as="geometry" />
        </mxCell>
        <mxCell id="VJS4k0ezBitYphk66Be5-28" value="&lt;p style=&quot;margin:0px;margin-top:4px;text-align:center;&quot;&gt;&lt;span style=&quot;background-color: initial; text-align: left;&quot;&gt;&lt;b&gt;TorchSDPA&lt;/b&gt;&lt;/span&gt;&lt;b&gt;&lt;span style=&quot;text-align: left;&quot;&gt;Metadata&lt;/span&gt;&lt;br&gt;&lt;/b&gt;&lt;/p&gt;&lt;hr size=&quot;1&quot; style=&quot;border-style:solid;&quot;&gt;&lt;p style=&quot;margin:0px;margin-left:4px;&quot;&gt;...&lt;/p&gt;" style="verticalAlign=top;align=left;overflow=fill;html=1;whiteSpace=wrap;" vertex="1" parent="1">
          <mxGeometry x="560" y="580" width="160" height="50" as="geometry" />
        </mxCell>
        <mxCell id="VJS4k0ezBitYphk66Be5-30" style="edgeStyle=orthogonalEdgeStyle;rounded=0;orthogonalLoop=1;jettySize=auto;html=1;exitX=0.5;exitY=0;exitDx=0;exitDy=0;entryX=0.75;entryY=1;entryDx=0;entryDy=0;" edge="1" parent="1" source="VJS4k0ezBitYphk66Be5-31" target="VJS4k0ezBitYphk66Be5-18">
          <mxGeometry relative="1" as="geometry">
            <mxPoint x="850" y="730" as="targetPoint" />
          </mxGeometry>
        </mxCell>
        <mxCell id="VJS4k0ezBitYphk66Be5-31" value="&lt;p style=&quot;text-align: center; margin: 4px 0px 0px;&quot;&gt;&lt;span style=&quot;background-color: initial; text-align: left;&quot;&gt;&lt;b&gt;TorchSDPABackend&lt;/b&gt;&lt;/span&gt;&lt;b&gt;Impl&lt;/b&gt;&lt;/p&gt;&lt;hr size=&quot;1&quot; style=&quot;border-style:solid;&quot;&gt;&lt;p style=&quot;margin:0px;margin-left:4px;&quot;&gt;&lt;/p&gt;&lt;p style=&quot;margin:0px;margin-left:4px;&quot;&gt;+ __init__() -&amp;gt; None&lt;/p&gt;&lt;p style=&quot;margin:0px;margin-left:4px;&quot;&gt;+ forward() -&amp;gt; torch.Tensor&lt;/p&gt;" style="verticalAlign=top;align=left;overflow=fill;html=1;whiteSpace=wrap;" vertex="1" parent="1">
          <mxGeometry x="783" y="620" width="150" height="70" as="geometry" />
        </mxCell>
      </root>
    </mxGraphModel>
  </diagram>
</mxfile>
